# xmcd
#
# Track frame offsets: 
#        150
#        22719
#        43097
#        75588
#        95707
#        131729
#        171617
#        174438
#        203214
#
# Disc length: 3157 seconds
#
# Revision: 0
# Processed by: cddbd v1.5.2PL0 Copyright (c) Steve Scherf et al.
# Submitted via: ExactAudioCopy v0.95b4
#
DISCID=740c5309
DTITLE=Eric Clapton - 2001-05-22 - Reptile In Memphis - CD2
DYEAR=2001
DGENRE=Blues
TTITLE0=Travelling Light
TTITLE1=Hoochie Coochie Man
TTITLE2=Have You Ever Loved A Woman
TTITLE3=Cocaine
TTITLE4=Wonderful Tonight
TTITLE5=Layla
TTITLE6=Crowd
TTITLE7=Sunshine Of Your Love
TTITLE8=Somewhere Over The Rainbow
EXTD=
EXTT0=
EXTT1=
EXTT2=
EXTT3=
EXTT4=
EXTT5=
EXTT6=
EXTT7=
EXTT8=
PLAYORDER=
